<svg width="25" height="25" viewBox="0 0 25 25" fill="none" xmlns="http://www.w3.org/2000/svg">
<path d="M7.56821 18.8687V21.1187" stroke="#6D737A" stroke-width="1.60606" stroke-linecap="round" stroke-linejoin="round"/>
<path d="M18.0682 18.8687V21.1187" stroke="#6D737A" stroke-width="1.60606" stroke-linecap="round" stroke-linejoin="round"/>
<path d="M6.06818 10.6189V5.7439C6.06818 5.24662 6.26572 4.7697 6.61735 4.41807C6.96898 4.06644 7.4459 3.8689 7.94318 3.8689C8.44046 3.8689 8.91737 4.06644 9.269 4.41807C9.62063 4.7697 9.81818 5.24662 9.81818 5.7439" stroke="#6D737A" stroke-width="1.60606" stroke-linecap="round" stroke-linejoin="round"/>
<path d="M19.5682 9.86865H13.5682V14.3687H19.5682V9.86865Z" stroke="#6D737A" stroke-width="1.60606" stroke-linecap="round" stroke-linejoin="round"/>
<path d="M19.5682 10.6187H22.5682C22.7671 10.6187 22.9579 10.6977 23.0985 10.8383C23.2392 10.979 23.3182 11.1697 23.3182 11.3687V14.3687C23.3182 15.5621 22.8441 16.7067 22.0002 17.5506C21.1562 18.3945 20.0117 18.8687 18.8182 18.8687H6.81818C5.6247 18.8687 4.48011 18.3945 3.6362 17.5506C2.79228 16.7067 2.31818 15.5621 2.31818 14.3687V11.3687C2.31818 11.1697 2.39719 10.979 2.53785 10.8383C2.6785 10.6977 2.86926 10.6187 3.06818 10.6187H13.5682" stroke="#6D737A" stroke-width="1.60606" stroke-linecap="round" stroke-linejoin="round"/>
</svg>
