<svg width="25" height="25" viewBox="0 0 25 25" fill="none" xmlns="http://www.w3.org/2000/svg">
<path d="M2.19696 12.1187H23.197" stroke="#6D737A" stroke-width="1.60606" stroke-linecap="round" stroke-linejoin="round"/>
<path d="M21.697 18.1187V20.3687C21.697 20.5676 21.6179 20.7583 21.4773 20.899C21.3366 21.0396 21.1459 21.1187 20.947 21.1187H18.697C18.498 21.1187 18.3073 21.0396 18.1666 20.899C18.026 20.7583 17.947 20.5676 17.947 20.3687V18.1187" stroke="#6D737A" stroke-width="1.60606" stroke-linecap="round" stroke-linejoin="round"/>
<path d="M7.44696 18.1187V20.3687C7.44696 20.5676 7.36794 20.7583 7.22729 20.899C7.08664 21.0396 6.89587 21.1187 6.69696 21.1187H4.44696C4.24805 21.1187 4.05728 21.0396 3.91663 20.899C3.77598 20.7583 3.69696 20.5676 3.69696 20.3687V18.1187" stroke="#6D737A" stroke-width="1.60606" stroke-linecap="round" stroke-linejoin="round"/>
<path d="M6.69696 15.1189H8.19696" stroke="#6D737A" stroke-width="1.60606" stroke-linecap="round" stroke-linejoin="round"/>
<path d="M17.197 15.1189H18.697" stroke="#6D737A" stroke-width="1.60606" stroke-linecap="round" stroke-linejoin="round"/>
<path d="M21.697 12.1187L18.8938 5.81865C18.8357 5.68537 18.74 5.57187 18.6185 5.49198C18.497 5.41208 18.3549 5.36924 18.2095 5.36865H7.18446C7.03904 5.36924 6.89693 5.41208 6.77542 5.49198C6.65391 5.57187 6.55825 5.68537 6.50009 5.81865L3.69696 12.1187V18.1187H21.697V12.1187Z" stroke="#6D737A" stroke-width="1.60606" stroke-linecap="round" stroke-linejoin="round"/>
</svg>
